<svg xmlns="http://www.w3.org/2000/svg"
    xmlns:xlink="http://www.w3.org/1999/xlink" width="100%" height="100%" viewBox="0 0 300 300">
    <path class="not-rendered" fill="red" stroke="blue" stroke-width=".5" d="m154.398 60.879-18.238 8.64 31.442-13.44Zm-18.238 8.64 31.442-13.44-30.961 14.64Zm0 0"/>
    <path class="not-rendered" fill="red" stroke="blue" stroke-width=".5" d="m136.64 70.719 20.4 57.36 31.198-14.638Zm20.4 57.36 31.198-14.638.961 3.118Zm0 0"/>
    <path class="not-rendered" fill="red" stroke="blue" stroke-width=".5" d="m116.48 74.559-12.718 6 31.68-12.957Zm-12.718 6 31.68-12.957-30.962 14.636Zm0 0"/>
    <path class="not-rendered" fill="red" stroke="blue" stroke-width=".5" d="m104.48 82.238 20.399 57.364 30.96-14.641Zm20.399 57.364 30.96-14.641 1.2 3.117Zm0 0"/>
    <path class="not-rendered" fill="red" stroke="blue" stroke-width=".5" d="m200.48 44.559-31.68 14.64 52.079 42.723Zm-31.68 14.64 52.079 42.723-31.68 14.637Zm52.079 42.723-31.68 14.637h.48Zm0 0"/>
    <path class="not-rendered" fill="red" stroke="blue" stroke-width=".5" d="m190.64 118.96 7.68 21.599 24.239-11.04Zm7.68 21.599 24.239-11.04.722 2.403Zm0 0"/>
    <path class="not-rendered" fill="red" stroke="blue" stroke-width=".5" d="m103.281 79.121-31.68 14.64 52.32 42.72Zm-31.68 14.64 52.32 42.72-31.683 14.878Zm0 0"/>
    <path fill="gray" stroke="lightgray" stroke-width=".5" d="m135.441 67.602 18.957-6.723-18.238 8.64Zm0 0"/>
    <path fill="gray" stroke="lightgray" stroke-width=".5" d="m136.64 70.719 30.962-14.64 20.636 57.362Zm0 0"/>
    <path fill="gray" stroke="lightgray" stroke-width=".5" d="m103.281 79.121 13.2-4.562-12.72 6Zm0 0"/>
    <path fill="gray" stroke="lightgray" stroke-width=".5" d="m104.48 82.238 30.961-14.636 20.399 57.359Zm0 0"/>
    <path fill="gray" stroke="lightgray" stroke-width=".5" d="m167.602 56.078 32.878-11.52L168.8 59.2Zm0 0"/>
    <path fill="gray" stroke="lightgray" stroke-width=".5" d="m189.2 116.559 31.679-14.637Zm0 0"/>
    <path fill="gray" stroke="lightgray" stroke-width=".5" d="m214.879 107.68 6.96-3.36.24.72Zm0 0"/>
    <path fill="gray" stroke="lightgray" stroke-width=".5" d="m220.879 101.922-31.2 14.637 32.16-12.239Zm-31.2 14.637 32.16-12.239-31.198 14.64Zm0 0"/>
    <path fill="gray" stroke="lightgray" stroke-width=".5" d="m190.64 118.96 24.239-11.28 7.68 21.84Zm0 0"/>
</svg>