<svg xmlns="http://www.w3.org/2000/svg"
    xmlns:xlink="http://www.w3.org/1999/xlink" width="100%" height="100%" viewBox="0 0 300 300">
    <path fill="red" stroke="blue" stroke-width=".5" d="m154.398 60.879-18.238 8.64 31.442-13.44Zm-18.238 8.64 31.442-13.44-30.961 14.64Zm0 0"/>
    <path fill="red" stroke="blue" stroke-width=".5" d="m136.64 70.719 20.4 57.36 31.198-14.638Zm20.4 57.36 31.198-14.638.961 3.118Zm0 0"/>
    <path fill="red" stroke="blue" stroke-width=".5" d="m116.48 74.559-12.718 6 31.68-12.957Zm-12.718 6 31.68-12.957-30.962 14.636Zm0 0"/>
    <path fill="red" stroke="blue" stroke-width=".5" d="m104.48 82.238 20.399 57.364 30.96-14.641Zm20.399 57.364 30.96-14.641 1.2 3.117Zm0 0"/>
    <path fill="red" stroke="blue" stroke-width=".5" d="m200.48 44.559-31.68 14.64 52.079 42.723Zm-31.68 14.64 52.079 42.723-31.68 14.637Zm52.079 42.723-31.68 14.637h.48Zm0 0"/>
    <path fill="red" stroke="blue" stroke-width=".5" d="m190.64 118.96 7.68 21.599 24.239-11.04Zm7.68 21.599 24.239-11.04.722 2.403Zm0 0"/>
    <path fill="red" stroke="blue" stroke-width=".5" d="m103.281 79.121-31.68 14.64 52.32 42.72Zm-31.68 14.64 52.32 42.72-31.683 14.878Zm0 0"/>

</svg>